<svg width="80" height="80" viewBox="0 0 80 80" fill="none" xmlns="http://www.w3.org/2000/svg">
<path fill-rule="evenodd" clip-rule="evenodd" d="M35.812 64.519L60.3009 49.8441H70.3745V78.5H1.25V40.5992L5.93765 36.4077V46.6166L35.812 64.519V64.519Z" fill="white"/>
<path fill-rule="evenodd" clip-rule="evenodd" d="M39.3443 49.8441H51.508L35.812 59.25L10.4787 44.0694V1.5H61.1459V18.8008H39.3443V49.8441V49.8441ZM24.813 10.4729C21.0572 10.4729 18.0015 13.5089 18.0015 17.2405C18.0015 20.9726 21.0572 24.0081 24.813 24.0081C28.5688 24.0081 31.6245 20.9726 31.6245 17.2405C31.6245 13.5089 28.5688 10.4729 24.813 10.4729V10.4729ZM31.1196 31.0265H18.5059V26.5148H31.1196V31.0265Z" fill="white"/>
<path fill-rule="evenodd" clip-rule="evenodd" d="M27.0835 17.2405C27.0835 18.4865 26.0671 19.4964 24.813 19.4964C23.5589 19.4964 22.5425 18.4865 22.5425 17.2405C22.5425 15.9951 23.5589 14.9846 24.813 14.9846C26.0671 14.9846 27.0835 15.9951 27.0835 17.2405V17.2405Z" fill="white"/>
<path fill-rule="evenodd" clip-rule="evenodd" d="M43.8853 23.3131V45.333H78.75V35.1376H66.439V30.6258H78.75V23.3131H43.8853V23.3131ZM51.605 30.6258H56.146V35.1376H51.605V30.6258V30.6258Z" fill="white"/>
</svg>
