<svg width="80" height="80" viewBox="0 0 80 80" fill="none" xmlns="http://www.w3.org/2000/svg">
<path fill-rule="evenodd" clip-rule="evenodd" d="M75.7734 15.6876H65.0315L66.9885 17.6302C68.2496 18.8821 68.9453 20.5483 68.9453 22.3182V64.3124H75.7734C77.0041 64.3124 78 63.3239 78 62.1022V17.8978C78 16.6761 77.0041 15.6876 75.7734 15.6876V15.6876Z" fill="white"/>
<path fill-rule="evenodd" clip-rule="evenodd" d="M4.22656 64.3124H11.0547V15.6876H4.22656C2.99587 15.6876 2 16.6761 2 17.8978V62.1022C2 63.3239 2.99587 64.3124 4.22656 64.3124Z" fill="white"/>
<path fill-rule="evenodd" clip-rule="evenodd" d="M51.1328 20.108H63.1876L51.1328 8.14172V20.108Z" fill="white"/>
<path fill-rule="evenodd" clip-rule="evenodd" d="M15.5078 9.0569C15.5078 7.83524 16.5037 6.84668 17.7344 6.84668H46.6797V22.3182C46.6797 23.5399 47.6756 24.5285 48.9062 24.5285H64.4922V70.9431C64.4922 72.1648 63.4963 73.1533 62.2656 73.1533H17.7344C16.5037 73.1533 15.5078 72.1648 15.5078 70.9431V9.0569ZM40 20.108H31.0938C29.8631 20.108 28.8672 21.0966 28.8672 22.3182C28.8672 23.5399 29.8631 24.5285 31.0938 24.5285H40C41.2307 24.5285 42.2266 23.5399 42.2266 22.3182C42.2266 21.0966 41.2307 20.108 40 20.108ZM51.1328 31.1591C51.1328 29.9375 50.1369 28.9489 48.9062 28.9489H31.0938C29.8631 28.9489 28.8672 29.9375 28.8672 31.1591C28.8672 32.3808 29.8631 33.3693 31.0938 33.3693H48.9062C50.1369 33.3693 51.1328 32.3808 51.1328 31.1591ZM31.0938 42.2102C29.8631 42.2102 28.8672 41.2217 28.8672 40C28.8672 38.7783 29.8631 37.7898 31.0938 37.7898H48.9062C50.1369 37.7898 51.1328 38.7783 51.1328 40C51.1328 41.2217 50.1369 42.2102 48.9062 42.2102H31.0938ZM28.8672 48.8409C28.8672 50.0625 29.8631 51.0511 31.0938 51.0511H48.9062C50.1369 51.0511 51.1328 50.0625 51.1328 48.8409C51.1328 47.6192 50.1369 46.6307 48.9062 46.6307H31.0938C29.8631 46.6307 28.8672 47.6192 28.8672 48.8409ZM31.0938 59.892C29.8631 59.892 28.8672 58.9034 28.8672 57.6818C28.8672 56.4601 29.8631 55.4715 31.0938 55.4715H48.9062C50.1369 55.4715 51.1328 56.4601 51.1328 57.6818C51.1328 58.9034 50.1369 59.892 48.9062 59.892H31.0938Z" fill="white"/>
</svg>
