<svg width="80" height="80" viewBox="0 0 80 80" fill="none" xmlns="http://www.w3.org/2000/svg">
<path fill-rule="evenodd" clip-rule="evenodd" d="M29.1758 50.2697C24.5295 50.2697 23.566 49.6734 23.566 48.9413C23.566 48.2064 36.3059 46.8794 49.5466 45.0148C62.7858 43.1475 70.4797 41.0338 70.4797 41.0338C73.1388 40.6082 74.9774 38.5169 75.0489 35.8335V19.4585C75.0405 16.7233 73.6647 15.0911 70.1038 14.52C66.543 13.9489 58.8449 12.3517 45.1709 12.6148C29.4801 11.9331 20.761 13.6801 20.761 12.6442V10.7713C20.747 7.42435 18.0627 4.74932 14.7164 4.73532H5.09555C2.97222 4.73532 1.25 6.45569 1.25 8.575C1.25 10.6957 2.97362 12.4147 5.09555 12.4147H9.07994C11.2804 12.4147 13.0657 16.176 13.0657 20.8135C13.0657 20.8135 11.9017 23.8987 11.6633 34.2223C11.4249 44.5459 13.0657 51.9187 13.0657 51.9187C13.084 55.2642 15.7641 57.9378 19.1145 57.9518H74.9044C77.0278 57.9518 78.75 56.2315 78.75 54.1108C78.75 51.9901 77.0264 50.2725 74.9044 50.2725L29.1758 50.2697V50.2697Z" fill="white"/>
<path fill-rule="evenodd" clip-rule="evenodd" d="M30.5642 60.0851C26.3639 60.0851 22.9601 63.4853 22.9601 67.6721C22.9601 71.8645 26.3639 75.2647 30.5642 75.2647C34.7618 75.2647 38.1684 71.8645 38.1684 67.6721C38.1684 63.4825 34.7632 60.0851 30.5642 60.0851V60.0851Z" fill="white"/>
<path fill-rule="evenodd" clip-rule="evenodd" d="M67.2091 60.0851C63.0102 60.0851 59.605 63.4853 59.605 67.6721C59.605 71.8645 63.0102 75.2647 67.2091 75.2647C71.4053 75.2647 74.8133 71.8645 74.8133 67.6721C74.8133 63.4825 71.4053 60.0851 67.2091 60.0851V60.0851Z" fill="white"/>
</svg>
